<svg width="512" height="512" xmlns="http://www.w3.org/2000/svg">
  <path d="M466.804 377.036L256 498.072 45.196 377.036V134.964L256 13.928l210.804 121.036v242.072z" fill="#2ACA4B"/>
  <path fill="#fff" d="M256 309.2c31.348 0 57-25.706 57-57.119V126.92c0-31.413-25.652-57.119-57-57.119s-57 25.706-57 57.119V252.08c0 31.413 25.652 57.119 57 57.119zm100.697-62.72c0 57.119-48.447 97.103-100.697 97.103s-100.697-39.985-100.697-97.102H123c0 64.731 51.304 118.995 114.001 127.567V442.2H275v-68.152c62.696-9.52 114-62.836 114-127.567h-32.303z"/>
</svg>
